<svg id="Layer_1" data-name="Layer 1" xmlns="http://www.w3.org/2000/svg" viewBox="0 0 93.72 89.64"><path d="M26.24,55.16a4.34,4.34,0,0,0-.23-.4,3,3,0,0,0-.67-.69,10.37,10.37,0,0,0-1.49-1,24.42,24.42,0,0,0-2.71-1.26l-2.35-1c-.95-.39-2-.82-3-1.29l-3.32-1.42-3.26-1.4-2.8-1.21-1.95-.85a11.4,11.4,0,0,0,.63,1.19c.2.34.44.71.71,1.11s.55.78.85,1.16a2.29,2.29,0,0,1-.78.47,2,2,0,0,1-.41.15,2.21,2.21,0,0,1-.92,0c-.31,0-.6-.33-.85-.86-.14-.28-.34-.7-.59-1.26a13.41,13.41,0,0,1-.69-2,16.63,16.63,0,0,1-.44-2.76,15.15,15.15,0,0,1,.15-3.38,5.41,5.41,0,0,1,1.15-2.84,5.33,5.33,0,0,1,2-1.45,6.36,6.36,0,0,1,2.31-.44,8.65,8.65,0,0,1,2,.21,10.19,10.19,0,0,1,3.24,1.55,12,12,0,0,1,2.91,2.88,14,14,0,0,1,2,4.11,13.28,13.28,0,0,1,.44,5.22l2.2.8c.75.27,1.48.55,2.2.83s1.39.56,2,.84a15.18,15.18,0,0,1,1.58.81,3.39,3.39,0,0,1,1.09.93,2.08,2.08,0,0,1,.23,1.55,1.85,1.85,0,0,1-.4.93A3,3,0,0,1,26.24,55.16ZM14,46.34l1.17.4,1.62.55a11,11,0,0,0-.16-1.8,10.68,10.68,0,0,0-.55-2,12.35,12.35,0,0,0-1-2.05,10.25,10.25,0,0,0-1.46-1.92,9.72,9.72,0,0,0-2-1.59,9.41,9.41,0,0,0-2.65-1,6.13,6.13,0,0,0-2.44-.2,3.84,3.84,0,0,0-1.69.65,3.26,3.26,0,0,0-1,1.21A4.76,4.76,0,0,0,3.37,40a5.42,5.42,0,0,0,0,1.45,11.77,11.77,0,0,0,.32,1.47.6.6,0,0,1,.18-.18,1.11,1.11,0,0,1,.53-.19l4.52,1.84c1.22.48,2.2.87,3,1.16Z"/><path d="M23.35,40.61a1,1,0,0,1,.11.61.61.61,0,0,1-.2.39.46.46,0,0,1-.4,0,.9.9,0,0,1-.43-.42L22,40.49c-.24-.4-.52-.87-.86-1.41L20,37.3c-.4-.64-.77-1.25-1.12-1.83s-.66-1.11-.93-1.58l-.58-1c-.28.08-.48.12-.59.14a1.18,1.18,0,0,1-.58-.15,2.08,2.08,0,0,1-.75-.68A6.31,6.31,0,0,1,14.79,31a4.87,4.87,0,0,1-.37-1.24,1.42,1.42,0,0,1,.13-1,1.27,1.27,0,0,1,1.07-.69,2.46,2.46,0,0,1,1.13.24,2.81,2.81,0,0,1,.78.57,2.73,2.73,0,0,1,.66.93l.24-.13a1.12,1.12,0,0,0,.31-.35,2.29,2.29,0,0,0,.3-.59,2.65,2.65,0,0,1,.27-.54,1.32,1.32,0,0,1,.65-.56,1.82,1.82,0,0,1,.8-.12,3.12,3.12,0,0,1,.84.16,4.88,4.88,0,0,1,.72.3,2.38,2.38,0,0,1,1.09,1.14c.28.54.56,1.17.85,1.89a13.55,13.55,0,0,0,.68,1.39,2.16,2.16,0,0,0,.92,1,1.54,1.54,0,0,0,.63.16c.19,0,.4-.19.64-.57a2.13,2.13,0,0,0,.28-1.12,8.63,8.63,0,0,0-.14-1.54,17.11,17.11,0,0,0-.4-1.73c-.17-.59-.35-1.15-.53-1.69s-.36-1-.53-1.38l-.35-.87a.71.71,0,0,1-.07-.49.46.46,0,0,1,.22-.35.42.42,0,0,1,.41,0,1.1,1.1,0,0,1,.48.56c.1.21.26.54.47,1s.44,1,.67,1.63.45,1.29.66,2a14.83,14.83,0,0,1,.47,2.11,9.56,9.56,0,0,1,.09,2,3.1,3.1,0,0,1-.44,1.53,2.49,2.49,0,0,1-.92.91,2.57,2.57,0,0,1-1,.3,2.78,2.78,0,0,1-1-.13,3.28,3.28,0,0,1-.86-.42,2.6,2.6,0,0,1-.53-.56c-.16-.23-.33-.48-.49-.76s-.32-.56-.47-.85-.3-.57-.46-.83c-.3-.58-.57-1.07-.8-1.45a2.27,2.27,0,0,0-.69-.8.81.81,0,0,0-.46-.15.38.38,0,0,0-.37.21,1.19,1.19,0,0,0-.13.22.38.38,0,0,1-.06.13,1.3,1.3,0,0,0-.1.18,3.1,3.1,0,0,1-.2.34,1.38,1.38,0,0,1-.44.48,2.94,2.94,0,0,0-.41.33c.07.14.22.45.46.92s.51,1,.83,1.65l1,2c.35.69.67,1.34,1,2L23,39.84C23.19,40.26,23.31,40.52,23.35,40.61Z"/><path d="M22.44,14.4a1.85,1.85,0,0,1,.17.7,2.25,2.25,0,0,1-.09.74,1.71,1.71,0,0,1-.31.6.6.6,0,0,1-.47.27,1.38,1.38,0,0,1-1.15-.33,1.73,1.73,0,0,1-.48-.94,2.91,2.91,0,0,1,0-1.1,1.83,1.83,0,0,1,.31-.8.61.61,0,0,1,.49-.27,1.25,1.25,0,0,1,.58.15,2.21,2.21,0,0,1,.56.43A2.33,2.33,0,0,1,22.44,14.4Zm1.12,7.35a1.2,1.2,0,0,1,.22-.59c.16-.24.33-.47.51-.7a6.65,6.65,0,0,1,.55-.6,2,2,0,0,1,.32-.28,2.31,2.31,0,0,1,.3.56c.18.37.37.81.59,1.32s.44,1,.66,1.59.42,1,.58,1.31.34.7.53,1.12.38.82.58,1.21a8.25,8.25,0,0,0,.62,1,1.73,1.73,0,0,0,.63.58,1.17,1.17,0,0,0,.56.14.64.64,0,0,0,.38-.15,2.87,2.87,0,0,0,.68-1.47,17.28,17.28,0,0,0,.33-2.35c.06-.86.09-1.69.07-2.5s-.05-1.44-.1-1.88a1.11,1.11,0,0,1,.11-.61.41.41,0,0,1,.32-.25.49.49,0,0,1,.39.17,1.12,1.12,0,0,1,.26.58,15.92,15.92,0,0,1,.27,2.38c0,1,0,1.93,0,2.9a18.46,18.46,0,0,1-.32,2.66,3.15,3.15,0,0,1-.69,1.63,2.27,2.27,0,0,1-.84.53,3.11,3.11,0,0,1-1,.19,2.94,2.94,0,0,1-1-.15,2.1,2.1,0,0,1-.85-.52,11.58,11.58,0,0,1-1.34-1.5c-.52-.68-1-1.4-1.49-2.16a22.44,22.44,0,0,1-1.23-2.3A5.57,5.57,0,0,1,23.56,21.75Z"/><path d="M38.42,18.91c-.14.89-.31,1.77-.5,2.63s-.39,1.66-.61,2.37a11.38,11.38,0,0,1-.68,1.81,1.79,1.79,0,0,1-.7.89,1.72,1.72,0,0,1-1.7-.16,6.49,6.49,0,0,1-1.7-1.57A13.93,13.93,0,0,1,31,22.57,21.16,21.16,0,0,1,30,20.22q-.37-1.09-.54-1.77a4.17,4.17,0,0,1-.12-1.13,1.44,1.44,0,0,1,.25-.72,2.92,2.92,0,0,1,.58-.6,2.5,2.5,0,0,1,.38-.27,1.6,1.6,0,0,1,.45-.2.6.6,0,0,1,.38,0,.47.47,0,0,1,.22.39q.06.27.15.78l.24,1.17c.09.43.2.88.32,1.34a13.35,13.35,0,0,0,.39,1.3,10.54,10.54,0,0,0,.83,1.77,7.63,7.63,0,0,0,.83,1.16,3.31,3.31,0,0,0,.71.62c.21.12.35.16.42.13s.19-.24.32-.59a10.51,10.51,0,0,0,.38-1.32c.13-.54.25-1.14.35-1.82a19.58,19.58,0,0,0,.23-2,2.67,2.67,0,0,1-.6-.95,5.79,5.79,0,0,1-.37-1.82,5.88,5.88,0,0,1,.16-1.57,4.15,4.15,0,0,1,.48-1.18,1.76,1.76,0,0,1,.66-.65c.46-.21.8-.22,1,0a1.43,1.43,0,0,1,.46.68,6,6,0,0,1,.22,1.75,21.44,21.44,0,0,1-.15,2.64l.34,0a1.64,1.64,0,0,0,.4-.12,6.66,6.66,0,0,0,1.54-1,6.88,6.88,0,0,0,1-1.09A5.34,5.34,0,0,0,42.56,14c.15-.34.28-.62.37-.84a.54.54,0,0,1,.25-.31.52.52,0,0,1,.3,0,.32.32,0,0,1,.22.19.6.6,0,0,1,0,.42,8.06,8.06,0,0,1-1.45,3,7.46,7.46,0,0,1-2.86,2.21l-.41.16A2.9,2.9,0,0,1,38.42,18.91Z"/><path d="M56.21,15.72c-.25.41-.56.92-1,1.52s-.8,1.21-1.21,1.82-.83,1.16-1.24,1.67a6.86,6.86,0,0,1-1,1.08,3,3,0,0,1-.65.34,4.05,4.05,0,0,1-.76.2,2.71,2.71,0,0,1-.75,0,2,2,0,0,1-.63-.21,1.45,1.45,0,0,1-.48-.55,5.4,5.4,0,0,1-.34-.83A5.06,5.06,0,0,1,48,19.46a5.92,5.92,0,0,1-1.43,1.9,6.46,6.46,0,0,1-1.54,1,5.87,5.87,0,0,1-1.73.5,1.72,1.72,0,0,1-.89-.21,2.21,2.21,0,0,1-.85-.82A4.16,4.16,0,0,1,41,20.33a7.2,7.2,0,0,1,.08-2.28,10.76,10.76,0,0,1,1.08-3.33A12.33,12.33,0,0,1,44,12.09a8.63,8.63,0,0,1,2-1.71,3.21,3.21,0,0,1,1.66-.58,3.62,3.62,0,0,1,1.32.37,1.49,1.49,0,0,1,.6.83,2.11,2.11,0,0,1-.38,1.54c.27-.08.49-.13.68-.17a2.87,2.87,0,0,1,.42,0,.56.56,0,0,1,.24,0,.81.81,0,0,1,0,.24,4.1,4.1,0,0,1,0,.7c0,.33-.09.79-.17,1.36S50.11,16,50,16.85c0,.18,0,.35-.07.49s0,.3,0,.45,0,.32-.07.52-.06.44-.1.74a3.89,3.89,0,0,0,0,.57,2,2,0,0,0,.14.56.92.92,0,0,0,.31.41.84.84,0,0,0,.55.12,1.33,1.33,0,0,0,.73-.42,7.69,7.69,0,0,0,.93-1c.33-.41.66-.85,1-1.33s.68-1,1-1.41l.81-1.2.52-.77a.87.87,0,0,1,.45-.34.32.32,0,0,1,.36.11.74.74,0,0,1,.08.52A2.38,2.38,0,0,1,56.21,15.72ZM47.73,17.6c.07-.4.16-.87.26-1.4s.18-1,.25-1.55.11-.9.13-1.22,0-.48-.07-.45a1.74,1.74,0,0,0-.32.11,1.85,1.85,0,0,1-.37.11,3.45,3.45,0,0,0-.46.12,2.65,2.65,0,0,0,.22-.79,1.48,1.48,0,0,0,0-.49.64.64,0,0,0-.14-.31c-.22-.16-.59,0-1.09.5a9.56,9.56,0,0,0-1.68,2.66,7.19,7.19,0,0,0-.59,1.67,9.41,9.41,0,0,0-.26,1.64,5.69,5.69,0,0,0,0,1.34,1.34,1.34,0,0,0,.28.73,1,1,0,0,0,.76.25,1.89,1.89,0,0,0,.81-.29,4.14,4.14,0,0,0,.81-.63,6.42,6.42,0,0,0,.71-.78,6.22,6.22,0,0,0,.51-.74A1.42,1.42,0,0,0,47.73,17.6Z"/><path d="M64.2,17.12a.51.51,0,0,1,.36-.15.41.41,0,0,1,.28.12.37.37,0,0,1,.06.32,1.16,1.16,0,0,1-.29.5,18.86,18.86,0,0,1-2.06,2A26.16,26.16,0,0,1,60,21.75a15.61,15.61,0,0,1-2.43,1.32,2.75,2.75,0,0,1-3.27-.44,3,3,0,0,1-.76-1.15,3.58,3.58,0,0,1-.21-1.3,4,4,0,0,1,.2-1.21c.1-.29.3-.82.6-1.58s.69-1.64,1.13-2.62.93-2,1.45-3.18,1.06-2.21,1.6-3.24l-1-.12c-.33-.05-.63-.1-.9-.16a7,7,0,0,1-1.67-.64,6.39,6.39,0,0,1-1.1-.71.29.29,0,0,1-.12-.37A1,1,0,0,1,53.81,6a1.48,1.48,0,0,1,.45-.28.67.67,0,0,1,.42-.06L55.82,6a13,13,0,0,0,1.37.35c.36.07.72.13,1.06.17l1,.1c.47-.85.91-1.59,1.31-2.2a6.32,6.32,0,0,1,1-1.25A.74.74,0,0,1,62,3a3.78,3.78,0,0,1,.67,0,2.66,2.66,0,0,1,.66.16.71.71,0,0,1,.4.33,2.71,2.71,0,0,1-.17,1.19A15.66,15.66,0,0,1,62.66,7a16.41,16.41,0,0,1,2.09.64c.6.24,1.1.46,1.51.67a10,10,0,0,1,1,.57q.36.25.54.36a.3.3,0,0,1,.15.34,1.08,1.08,0,0,1-.21.45.93.93,0,0,1-.42.33.6.6,0,0,1-.54,0,3.89,3.89,0,0,1-.62-.27,8.46,8.46,0,0,0-.81-.35l-1.16-.4c-.44-.15-1-.3-1.58-.45a3,3,0,0,0-.39-.08l-.44-.09c-.15.28-.29.56-.43.84a9.94,9.94,0,0,1-.5.86c-.43.7-.92,1.45-1.46,2.26s-1,1.52-1.68,2.43S56.34,17,55.57,18a4.3,4.3,0,0,0-.41,1.87,2.09,2.09,0,0,0,.3,1.06,1.52,1.52,0,0,0,.82.56,1.78,1.78,0,0,0,1.11,0,7.83,7.83,0,0,0,1.5-.65c.54-.29,1.08-.62,1.65-1s1.08-.73,1.58-1.09l1.3-1Z"/><path d="M72.93,24.12a21.25,21.25,0,0,1-3,1.18,17.9,17.9,0,0,1-3.12.7,13,13,0,0,1-3,.07,6.22,6.22,0,0,1-2.49-.76,3.58,3.58,0,0,1-1-1,4,4,0,0,1-.71-1.5,4.66,4.66,0,0,1,0-1.94,5.74,5.74,0,0,1,1.05-2.27,7.65,7.65,0,0,1,1.92-1.82,11.62,11.62,0,0,1,2.56-1.35,8.8,8.8,0,0,1,2.73-.56,4.3,4.3,0,0,1,2.38.52,2.09,2.09,0,0,1,1.12,1.29A1.77,1.77,0,0,1,71,18.13a4,4,0,0,1-1.28,1.19,6.4,6.4,0,0,1-1.56.69,9.49,9.49,0,0,1-1.63.35c-.55.07-1.06.12-1.53.16l-1.49.11-1.24.11a3.22,3.22,0,0,0-.39,1.2,2.42,2.42,0,0,0,.11,1,2.08,2.08,0,0,0,.48.79,3.12,3.12,0,0,0,.73.57,4.11,4.11,0,0,0,2.12.49,14.05,14.05,0,0,0,2.6-.26,21.48,21.48,0,0,0,2.6-.65c.84-.26,1.54-.49,2.12-.71a.88.88,0,0,1,.5,0,.42.42,0,0,1,.28.23.43.43,0,0,1-.06.37A1,1,0,0,1,72.93,24.12Zm-4.25-7.65a1.61,1.61,0,0,0-.9-.11,4.39,4.39,0,0,0-1.33.4,9.63,9.63,0,0,0-1.57,1,9.28,9.28,0,0,0-1.62,1.59q.43-.06.93-.09l1-.12a8.09,8.09,0,0,0,2.37-.59,3,3,0,0,0,1.11-.82,1.17,1.17,0,0,0,.3-.75A.58.58,0,0,0,68.68,16.47Z"/><path d="M57.05,69.15c0-.06,0-.21.18-.46a8.59,8.59,0,0,0,.45-.91,12.5,12.5,0,0,0,.5-1.23,6.86,6.86,0,0,0,.35-1.42,4.77,4.77,0,0,0,0-1.46,3.16,3.16,0,0,0-.62-1.41,1.15,1.15,0,0,0-.86-.39,3.43,3.43,0,0,0-1.29.17,7.16,7.16,0,0,0-1.49.67,8,8,0,0,0-1.42,1.06,6.33,6.33,0,0,0-1.1,1.33,3.26,3.26,0,0,0-.52,1.49,3.94,3.94,0,0,0,.05,1.15,5.16,5.16,0,0,0,.27,1c.12.3.25.57.38.82s.27.48.39.68a4.38,4.38,0,0,0,.73.91c.33.33.69.71,1.08,1.13a16.13,16.13,0,0,1,1.17,1.42,9.54,9.54,0,0,1,1,1.78,8.78,8.78,0,0,1,.61,2.23,9.65,9.65,0,0,1,0,2.73,12.63,12.63,0,0,1-1,3.61,9.24,9.24,0,0,1-1.55,2.33,5.4,5.4,0,0,1-1.68,1.27,6.81,6.81,0,0,1-1.41.52c-.29.06-.64.11-1,.16a4.47,4.47,0,0,1-1.26,0,5.34,5.34,0,0,1-1.33-.41,3.48,3.48,0,0,1-1.2-.95,6.23,6.23,0,0,1-1-1.59A7.57,7.57,0,0,1,45,83.63a4.22,4.22,0,0,1,.16-2,4.37,4.37,0,0,1,.5-.47,5.37,5.37,0,0,1,.53-.35,5.86,5.86,0,0,1,.61-.32c.26-.08.51-.15.77-.21a4.73,4.73,0,0,1,.68-.07,1.92,1.92,0,0,1,.69.1,3.38,3.38,0,0,0-.61.94,3.23,3.23,0,0,0-.18.41A5,5,0,0,0,48,83a4.79,4.79,0,0,0,.32,1.5,3.32,3.32,0,0,0,.8,1.23,2.06,2.06,0,0,0,1.41.54q2.15.06,3.63-3.34a5,5,0,0,0,.52-2.13,7.58,7.58,0,0,0-.26-2.09,9.49,9.49,0,0,0-.74-1.86,10.87,10.87,0,0,0-.92-1.48c-.31-.41-.69-.85-1.13-1.33s-.87-1-1.3-1.57a13.05,13.05,0,0,1-1.16-1.84,6.88,6.88,0,0,1-.68-2.17,5.73,5.73,0,0,1,.3-3,8.13,8.13,0,0,1,1.47-2.39,8.76,8.76,0,0,1,2-1.67,6.88,6.88,0,0,1,2-.82c3.15-.62,5.21-.1,6.18,1.58a4.24,4.24,0,0,1,.68,2.06,8,8,0,0,1-.14,2,7.07,7.07,0,0,1-.47,1.56,2.55,2.55,0,0,1-.36.68,2.33,2.33,0,0,1-.56.38,4.67,4.67,0,0,1-1.23.39,2.5,2.5,0,0,1-.47.05l-.44,0A1.64,1.64,0,0,1,57.05,69.15Z"/><path d="M75.12,71.2c-.11.46-.27,1-.46,1.73S74.25,74.32,74,75s-.46,1.35-.69,2a6.19,6.19,0,0,1-.67,1.33,3.16,3.16,0,0,1-1.2.93,2.8,2.8,0,0,1-.71.23,1.61,1.61,0,0,1-.66,0,1.4,1.4,0,0,1-.62-.39,4.53,4.53,0,0,1-.57-.69,5.11,5.11,0,0,1-.56-1.19,6.1,6.1,0,0,1-.81,2.23,6.59,6.59,0,0,1-1.18,1.44,6.14,6.14,0,0,1-1.5,1,1.73,1.73,0,0,1-.92.06,2.19,2.19,0,0,1-1.06-.54A4.08,4.08,0,0,1,62,80a6.92,6.92,0,0,1-.59-2.2,10.78,10.78,0,0,1,0-3.5,13.06,13.06,0,0,1,.93-3,8.66,8.66,0,0,1,1.38-2.2,3.25,3.25,0,0,1,1.42-1,3.53,3.53,0,0,1,1.37,0,1.39,1.39,0,0,1,.82.61,2.15,2.15,0,0,1,.08,1.58c.24-.15.44-.27.6-.35a2.85,2.85,0,0,1,.39-.18.85.85,0,0,1,.23-.06.88.88,0,0,1,.12.23,4.72,4.72,0,0,1,.16.67c.06.33.14.78.23,1.35s.21,1.31.35,2.22c0,.18.05.34.08.49s.05.29.07.44.06.32.09.52.08.44.13.73a2.5,2.5,0,0,0,.19.54,1.9,1.9,0,0,0,.3.5.93.93,0,0,0,.41.3.81.81,0,0,0,.56-.05A1.36,1.36,0,0,0,71.9,77a8.85,8.85,0,0,0,.6-1.23c.19-.48.38-1,.57-1.57s.37-1.11.53-1.63.3-1,.42-1.38.22-.7.27-.89a1,1,0,0,1,.33-.46.33.33,0,0,1,.38,0,.72.72,0,0,1,.23.48A2.17,2.17,0,0,1,75.12,71.2Zm-7.55,4.26c0-.39-.11-.86-.17-1.41s-.13-1-.21-1.54-.16-.9-.23-1.22-.14-.45-.21-.41-.17.12-.26.2a1.57,1.57,0,0,1-.33.22,4.5,4.5,0,0,0-.41.25,2.78,2.78,0,0,0,0-.83,1.74,1.74,0,0,0-.16-.45.66.66,0,0,0-.23-.26c-.26-.09-.56.18-.9.8a10,10,0,0,0-.83,3,8,8,0,0,0-.08,1.77,11.07,11.07,0,0,0,.24,1.65,5.42,5.42,0,0,0,.44,1.26,1.3,1.3,0,0,0,.48.61.94.94,0,0,0,.8,0,2,2,0,0,0,.69-.52,4.47,4.47,0,0,0,.59-.84,6.8,6.8,0,0,0,.45-1A6.88,6.88,0,0,0,67.5,76,1.83,1.83,0,0,0,67.57,75.46Z"/><path d="M76.08,76c-1.41-3.43-2.55-6.19-3.41-8.26s-1.51-3.67-2-4.76c-.55-1.29-.92-2.19-1.14-2.69q-.25-.49-.51-1a8,8,0,0,0-.52-.82,3.68,3.68,0,0,0-.6-.68,1.83,1.83,0,0,1,.28-.49,4,4,0,0,1,.35-.44c.14-.17.29-.34.44-.5a4.94,4.94,0,0,1,.44-.39,2.48,2.48,0,0,1,.38-.22.38.38,0,0,1,.33,0c.15,0,.31.14.47.38s.32.51.47.78.32.73.49,1.13c.3.82.75,2,1.34,3.52.5,1.3,1.19,3.06,2.06,5.3l3.32,8.44a.78.78,0,0,1-.17.37,1.15,1.15,0,0,1-.27.27,3.32,3.32,0,0,1-.37.23,2,2,0,0,1-.44.1,1.91,1.91,0,0,1-.46,0A1.24,1.24,0,0,1,76.08,76Z"/><path d="M87.36,57.61a22.5,22.5,0,0,1,.57,3.15A18.23,18.23,0,0,1,88,64a12.9,12.9,0,0,1-.52,2.93,6.21,6.21,0,0,1-1.23,2.29A3.85,3.85,0,0,1,85.1,70a4,4,0,0,1-1.62.4,4.71,4.71,0,0,1-1.9-.37,5.75,5.75,0,0,1-2-1.47,7.67,7.67,0,0,1-1.41-2.24,11.35,11.35,0,0,1-.81-2.78,8.65,8.65,0,0,1,0-2.78,4.28,4.28,0,0,1,1-2.23,2,2,0,0,1,1.48-.84,1.75,1.75,0,0,1,1.32.57A4.31,4.31,0,0,1,82,59.78a6.94,6.94,0,0,1,.37,1.67,10.35,10.35,0,0,1,0,1.67c0,.55-.08,1.06-.14,1.53s-.12,1-.18,1.48S82,67,82,67.37a3.34,3.34,0,0,0,1.1.62,2.48,2.48,0,0,0,1,.09,2.29,2.29,0,0,0,.87-.32,3.13,3.13,0,0,0,.7-.61,4.13,4.13,0,0,0,.9-2,14.32,14.32,0,0,0,.26-2.6,23.71,23.71,0,0,0-.12-2.68c-.1-.87-.19-1.61-.29-2.21a.78.78,0,0,1,.08-.5.4.4,0,0,1,.27-.23.41.41,0,0,1,.35.13A1.16,1.16,0,0,1,87.36,57.61ZM79,60.28a1.47,1.47,0,0,0-.29.86,4.7,4.7,0,0,0,.13,1.38,9,9,0,0,0,.64,1.72,9.12,9.12,0,0,0,1.23,1.9c0-.29.06-.6.1-.93s.07-.66.09-1a8.39,8.39,0,0,0-.12-2.44,3,3,0,0,0-.58-1.25,1.19,1.19,0,0,0-.69-.44A.57.57,0,0,0,79,60.28Z"/><path d="M41.27,80.15A31.81,31.81,0,0,1,20.55,57.68l1.14-.28A30.62,30.62,0,0,0,41.65,79Z"/><path d="M83.33,53l-1.17-.11a30.73,30.73,0,0,0-8.8-24.64l.83-.83A31.92,31.92,0,0,1,83.33,53Z"/></svg>